<?xml version="1.0" encoding="UTF-8"?>
<svg id="Layer_2" data-name="Layer 2" xmlns="http://www.w3.org/2000/svg" viewBox="0 0 466.96 216.31">
  <defs>
    <style>
      .cls-1 {
        fill: #fff;
      }
    </style>
  </defs>
  <g id="Layer_1-2" data-name="Layer 1">
    <g>
      <path class="cls-1" d="M0,23.09C-.08,15.1,1.2,9.3,3.85,5.68,6.5,2.06,10.44.25,15.65.25c4.54,0,8.1,1.62,10.66,4.86,2.57,3.24,3.64,8.81,3.22,16.72l-1.77,35.59c-.34,6.23.08,10.24,1.26,12.05,1.18,1.81,2.73,2.71,4.67,2.71,2.19,0,4.31-.82,6.37-2.46,2.06-1.64,4.35-3.89,6.88-6.75,8.5-9.93,18.13-25.87,28.9-47.83,2.94-5.97,5.85-9.99,8.71-12.05,2.86-2.06,6.31-3.09,10.35-3.09,3.53,0,6.6,1.09,9.21,3.28,2.61,2.19,3.91,5.38,3.91,9.59,0,3.62-1.01,7.32-3.03,11.11-5.97,11.28-12.37,21.64-19.18,31.11-6.82,9.47-13.21,17.4-19.18,23.79-3.7,4.04-6.23,7.24-7.57,9.59-1.35,2.36-2.02,5.09-2.02,8.2,0,2.61.5,5.2,1.51,7.76,1.01,2.57,3.07,6.16,6.18,10.79,4.46,6.56,9.95,13.12,16.47,19.69,6.52,6.56,14.62,13.34,24.29,20.32,4.96,3.53,8.29,6.58,9.97,9.15,1.68,2.57,2.52,5.53,2.52,8.9s-1.07,6.29-3.22,8.77-5.45,3.72-9.91,3.72c-3.03,0-5.79-.59-8.27-1.77-2.48-1.18-5.03-2.82-7.63-4.92-10.69-8.58-19.23-16.66-25.62-24.23-6.4-7.57-12.2-15.23-17.42-22.97-2.78-4.21-4.82-6.9-6.12-8.08-1.31-1.18-2.67-1.77-4.1-1.77-1.85,0-3.39.82-4.61,2.46-1.22,1.64-1.92,4.57-2.08,8.77l-1.26,32.31c-.34,8.41-1.62,14.09-3.85,17.04-2.23,2.94-5.2,4.42-8.9,4.42s-6.58-1.47-8.9-4.42c-2.32-2.94-3.56-8.62-3.72-17.04L0,23.09Z"/>
      <path class="cls-1" d="M150.31,8.58c3.53,3.2,5.3,7.19,5.3,11.99s-1.7,8.52-5.11,10.92c-3.41,2.4-7.47,3.85-12.18,4.35-5.8.59-10.01-.44-12.62-3.09-2.61-2.65-3.91-6.54-3.91-11.67s1.53-9.51,4.61-12.62c3.07-3.11,6.88-4.67,11.42-4.67,4.8,0,8.96,1.6,12.49,4.8ZM124.31,72.57c-.17-7.91,1.05-13.19,3.66-15.84,2.61-2.65,6.27-3.98,10.98-3.98,4.21,0,7.66,1.35,10.35,4.04,2.69,2.69,3.95,8.04,3.79,16.03l-2.78,100.84c-.25,9.34-4.21,14.01-11.86,14.01s-11.48-4.67-11.74-14.01l-2.4-101.09Z"/>
      <path class="cls-1" d="M174.54,68.02c.08-9.51,3.7-14.26,10.85-14.26,2.69,0,4.75.78,6.18,2.33,1.43,1.56,2.48,3.85,3.15,6.88l.25,1.14c.92,4.46,2.61,6.69,5.05,6.69,1.85,0,3.34-.57,4.48-1.7s2.63-3.26,4.48-6.37c2.19-3.87,5-6.98,8.46-9.34,3.45-2.35,8.16-3.53,14.13-3.53,6.98,0,13.78,2.13,20.38,6.37,6.6,4.25,12.07,11.17,16.41,20.76,4.33,9.59,6.5,22.42,6.5,38.49v9.59c0,15.82-2.08,28.21-6.25,37.17-4.17,8.96-9.47,15.25-15.9,18.87-6.44,3.62-13.1,5.43-20,5.43-5.13,0-9.7-.88-13.69-2.65-4-1.77-7.38-4.17-10.16-7.19-3.28-3.53-5.93-5.3-7.95-5.3-3.28,0-4.67,3.37-4.17,10.1l1.39,20.07c.33,4.37-.61,7.93-2.84,10.66-2.23,2.73-5.45,4.1-9.65,4.1s-7.55-1.41-9.53-4.23c-1.98-2.82-2.92-6.42-2.84-10.79l1.26-133.27ZM250.01,121.79v-1.64c0-12.03-2.19-21.62-6.56-28.77-4.38-7.15-11.32-10.73-20.82-10.73-4.97,0-9.36,1.05-13.19,3.16-3.83,2.1-6.82,5.89-8.96,11.36-2.15,5.47-3.22,13.21-3.22,23.22v3.41c0,12.12,2.42,21.52,7.26,28.21,4.84,6.69,11.38,10.03,19.62,10.03,4.12,0,8.16-1.28,12.12-3.85,3.95-2.57,7.23-6.67,9.84-12.3,2.61-5.64,3.91-13,3.91-22.08Z"/>
      <path class="cls-1" d="M331.16,140.46c-.08,7.66.95,12.94,3.09,15.84,2.15,2.9,6.04,4.73,11.67,5.49,5.3.76,9,2.23,11.11,4.42,2.1,2.19,3.16,5.01,3.16,8.46,0,3.62-1.51,6.69-4.54,9.21-3.03,2.52-7.99,3.79-14.89,3.79-13.71,0-23.52-3.66-29.41-10.98-5.89-7.32-8.41-18.93-7.57-34.83l2.65-50.35c.33-5.81-.36-9.4-2.08-10.79-1.73-1.39-5.07-2.08-10.03-2.08h-2.4c-8.58,0-12.87-3.36-12.87-10.1,0-2.94.91-5.41,2.71-7.38,1.81-1.98,5.36-3.43,10.66-4.35l1.64-.25c3.87-.67,6.52-1.83,7.95-3.47,1.43-1.64,2.57-4.35,3.41-8.14l1.01-4.67c2.19-9.42,6.82-14.13,13.88-14.13,3.95,0,6.71,1.12,8.27,3.34,1.56,2.23,2.33,5.83,2.33,10.79v1.89c0,5.13.69,8.62,2.08,10.47,1.39,1.85,4.06,2.9,8.01,3.16l7.57.5c4.88.42,8.33,1.62,10.35,3.6,2.02,1.98,3.03,4.4,3.03,7.26,0,6.23-4.29,9.59-12.87,10.1l-4.67.25c-5.3.34-8.71,1.5-10.22,3.47-1.51,1.98-2.32,4.99-2.4,9.02l-.63,50.48Z"/>
      <path class="cls-1" d="M377.6,171.95c-10.01-10.98-15.02-27.36-15.02-49.16v-9.84c0-15.48,2.25-27.51,6.75-36.09,4.5-8.58,10.77-14.68,18.8-18.3,8.03-3.62,17.35-5.64,27.95-6.06,10.6-.5,19.71,1.14,27.32,4.92,7.61,3.79,13.44,10.33,17.48,19.62,4.04,9.3,6.06,22.11,6.06,38.43v9.84c0,14.56-2.19,26.48-6.56,35.78-4.38,9.3-10.31,16.18-17.79,20.63-7.49,4.46-15.9,6.69-25.24,6.69-16.49,0-29.74-5.49-39.75-16.47ZM435.03,152.64c5.3-7.11,7.95-17.39,7.95-30.86v-7.83c0-12.54-2.02-21.58-6.06-27.13-4.04-5.55-10.14-8.33-18.3-8.33-5.39,0-10.54,1.37-15.46,4.1-4.92,2.74-8.92,6.92-11.99,12.56-3.07,5.64-4.61,12.79-4.61,21.45v7.7c0,11.44,2.67,20.8,8.01,28.08,5.34,7.28,12.09,10.92,20.26,10.92s14.89-3.55,20.19-10.66Z"/>
    </g>
  </g>
</svg>